<svg version="1.1" xmlns="http://www.w3.org/2000/svg"  viewBox="0 0 1024 1024">
<title></title>
<g id="icomoon-ignore">
</g>
<path d="M808.188 251.142c-55.241-24.281-114.304-41.928-176.047-51.975-7.586 12.881-16.448 30.206-22.554 43.988-65.643-9.274-130.679-9.274-195.111 0-6.107-13.783-15.169-31.107-22.819-43.988-61.815 10.047-120.946 27.759-176.184 52.104-111.415 158.179-141.618 312.429-126.516 464.489 73.897 51.849 145.511 83.341 215.917 103.949 17.384-22.477 32.887-46.37 46.244-71.552-25.437-9.084-49.801-20.288-72.823-33.297 6.108-4.25 12.081-8.695 17.853-13.269 140.412 61.7 292.967 61.7 431.702 0 5.837 4.574 11.81 9.020 17.852 13.269-23.091 13.073-47.518 24.277-72.96 33.361 13.359 25.118 28.796 49.075 46.246 71.552 70.473-20.608 142.153-52.1 216.051-104.013 17.719-176.277-30.272-329.109-126.852-464.617zM370.246 622.242c-42.15 0-76.716-36.966-76.716-81.984 0-45.022 33.827-82.052 76.716-82.052s77.451 36.966 76.713 82.052c0.073 45.018-33.824 81.984-76.713 81.984zM653.751 622.242c-42.15 0-76.719-36.966-76.719-81.984 0-45.022 33.83-82.052 76.719-82.052 42.884 0 77.453 36.966 76.715 82.052 0 45.018-33.83 81.984-76.715 81.984z"></path>
</svg>
